<?xml version="1.0" standalone="no"?>
<!DOCTYPE svg PUBLIC "-//W3C//DTD SVG 20010904//EN"
 "http://www.w3.org/TR/2001/REC-SVG-20010904/DTD/svg10.dtd">
<svg version="1.0" xmlns="http://www.w3.org/2000/svg"
 width="864.000000pt" height="1280.000000pt" viewBox="0 0 864.000000 1280.000000"
 preserveAspectRatio="xMidYMid meet">

<g transform="translate(0.000000,1280.000000) scale(0.100000,-0.100000)"
fill="#000000" stroke="none">
<path d="M0 6400 l0 -6400 4320 0 4320 0 0 6400 0 6400 -4320 0 -4320 0 0
-6400z m6780 2535 l0 -525 -915 0 -915 0 0 -985 0 -985 -625 0 -625 0 0 985 0
985 -914 0 c-723 0 -915 3 -917 13 -2 6 -3 243 -1 525 l3 512 2454 0 2455 0 0
-525z m1773 -1972 c-46 -2 -120 -2 -165 0 -46 1 -9 3 82 3 91 0 128 -2 83 -3z
m-8233 -187 c8 -2 -58 -4 -147 -5 -90 0 -163 3 -163 7 0 7 275 5 310 -2z
m8303 -3 c-7 -2 -19 -2 -25 0 -7 3 -2 5 12 5 14 0 19 -2 13 -5z m-8375 -370
c-42 -2 -114 -2 -160 0 -46 1 -11 3 77 3 88 0 125 -2 83 -3z m8310 -10 c-42
-2 -114 -2 -160 0 -46 1 -11 3 77 3 88 0 125 -2 83 -3z m-3608 -1578 l0 -1545
-625 0 -625 0 0 1545 0 1545 625 0 625 0 0 -1545z m-4913 1209 c-3 -3 -12 -4
-19 -1 -8 3 -5 6 6 6 11 1 17 -2 13 -5z m8593 -2 c0 -7 -277 -5 -310 2 -8 2
58 4 148 5 89 0 162 -2 162 -7z m-8367 -189 c-45 -2 -122 -2 -170 0 -48 1 -12
3 82 3 94 0 133 -2 88 -3z"/>
</g>
</svg>
